<svg width="1600" height="640" viewBox="0 0 1600 640" fill="none" xmlns="http://www.w3.org/2000/svg">
  <defs>
    <pattern id="grid" width="32" height="32" patternUnits="userSpaceOnUse">
      <path d="M32 0H0V32" stroke="#93A4BD" stroke-opacity=".08"/>
    </pattern>
    <filter id="shadow" x="-20%" y="-20%" width="140%" height="140%">
      <feDropShadow dx="0" dy="18" stdDeviation="24" flood-color="#020817" flood-opacity=".35"/>
    </filter>
  </defs>
  <rect width="1600" height="640" rx="28" fill="#0C1524"/>
  <rect width="1600" height="640" rx="28" fill="url(#grid)"/>
  <path d="M0 505H1600" stroke="#243147"/>
  <path d="M930 0V640" stroke="#243147"/>
  <g transform="translate(90 76)">
    <path d="M0 5H30" stroke="#5E7FFF" stroke-width="2"/>
    <text x="47" y="12" fill="#91A4BE" font-family="Inter, Arial, sans-serif" font-size="18" font-weight="600" letter-spacing="4">HYT · LOAD PLANNING SYSTEM</text>
    <text x="0" y="122" fill="#F8FAFC" font-family="Inter, Arial, sans-serif" font-size="74" font-weight="600" letter-spacing="-3">Container</text>
    <text x="0" y="206" fill="#8EA5FF" font-family="Inter, Arial, sans-serif" font-size="74" font-weight="600" letter-spacing="-3">Load Planner</text>
    <text x="2" y="268" fill="#AAB7C9" font-family="PingFang SC, Microsoft YaHei, Arial, sans-serif" font-size="27">让每一立方米，都有明确去处。</text>
    <text x="2" y="318" fill="#718097" font-family="PingFang SC, Microsoft YaHei, Arial, sans-serif" font-size="19">整数几何内核 · 混合启发式搜索 · 可执行装载方案</text>
    <g transform="translate(0 370)">
      <text x="0" y="0" fill="#F4F7FB" font-family="Inter, Arial, sans-serif" font-size="21" font-weight="560" letter-spacing="1">SMART PLANNING</text>
      <text x="0" y="27" fill="#718097" font-family="PingFang SC, Microsoft YaHei, Arial, sans-serif" font-size="14" letter-spacing="1.5">智能排样</text>
      <path d="M204 -13V35" stroke="#2A384F"/>
      <text x="240" y="0" fill="#F4F7FB" font-family="Inter, Arial, sans-serif" font-size="21" font-weight="560" letter-spacing="1">3D REVIEW</text>
      <text x="240" y="27" fill="#718097" font-family="PingFang SC, Microsoft YaHei, Arial, sans-serif" font-size="14" letter-spacing="1.5">三维复核</text>
      <path d="M390 -13V35" stroke="#2A384F"/>
      <text x="426" y="0" fill="#F4F7FB" font-family="Inter, Arial, sans-serif" font-size="21" font-weight="560" letter-spacing="1">PLAN DELIVERY</text>
      <text x="426" y="27" fill="#718097" font-family="PingFang SC, Microsoft YaHei, Arial, sans-serif" font-size="14" letter-spacing="1.5">方案交付</text>
    </g>
  </g>
  <g transform="translate(980 72)" filter="url(#shadow)">
    <path d="M0 118 270 45l215 91-273 78L0 118Z" stroke="#60728F" stroke-width="2"/>
    <path d="M0 118v236l212 91V214M212 214v231l273-83V136" stroke="#60728F" stroke-width="2"/>
    <path d="m27 170 159 68v157L27 327V170Z" fill="#18263B" stroke="#4E6BD0" stroke-width="1.5"/>
    <path d="m202 235 96-27v163l-96 29V235Z" fill="#2949C8" fill-opacity=".72" stroke="#7E95EA" stroke-width="1.5"/>
    <path d="m306 205 85-23v160l-85 26V205Z" fill="#17253A" stroke="#5D6F8B" stroke-width="1.5"/>
    <path d="m400 180 61-17v157l-61 19V180Z" fill="#202E45" stroke="#5D6F8B" stroke-width="1.5"/>
    <path d="m28 160 160-42 109 45-162 46-107-49Z" fill="#223149" stroke="#5D6F8B" stroke-width="1.5"/>
    <path d="m195 116 84-22 110 46-86 23-108-47Z" fill="#3151CB" fill-opacity=".62" stroke="#8197E9" stroke-width="1.5"/>
    <path d="m287 92 69-18 111 45-71 20-109-47Z" fill="#17253A" stroke="#5D6F8B" stroke-width="1.5"/>
    <path d="M0 380H485" stroke="#34445D" stroke-dasharray="6 8"/>
    <path d="M0 399H485" stroke="#26354C" stroke-dasharray="3 11"/>
  </g>
  <g transform="translate(1210 412)">
    <rect width="298" height="110" rx="12" fill="#101C2E" stroke="#34445D"/>
    <text x="20" y="31" fill="#718097" font-family="Inter, Arial, sans-serif" font-size="11" font-weight="600" letter-spacing="2">CONNECTED WORKFLOW</text>
    <text x="20" y="68" fill="#F8FAFC" font-family="Inter, Arial, sans-serif" font-size="22" font-weight="560" letter-spacing=".5">PLAN · VERIFY · DELIVER</text>
    <text x="20" y="92" fill="#718097" font-family="PingFang SC, Microsoft YaHei, Arial, sans-serif" font-size="13" letter-spacing="1.5">从清单到装载方案</text>
  </g>
  <text x="90" y="574" fill="#526078" font-family="Inter, Arial, sans-serif" font-size="15" font-weight="600" letter-spacing="2.5">ENGINEERED FOR REAL-WORLD CONSTRAINTS</text>
  <text x="1510" y="574" fill="#526078" font-family="Inter, Arial, sans-serif" font-size="15" font-weight="600" text-anchor="end" letter-spacing="2.5">HYT · PRODUCT SYSTEM</text>
</svg>
